
<svg xmlns="http://www.w3.org/2000/svg" version="1.1" xmlns:xlink="http://www.w3.org/1999/xlink" xmlns:svgjs="http://svgjs.dev/svgjs" width="1500" height="1673" viewBox="0 0 1500 1673"><g transform="matrix(1,0,0,1,-0.9953733773518252,0)"><svg viewBox="0 0 251 280" data-background-color="#293040" preserveAspectRatio="xMidYMid meet" height="1673" width="1500" xmlns="http://www.w3.org/2000/svg" xmlns:xlink="http://www.w3.org/1999/xlink"><g id="tight-bounds" transform="matrix(1,0,0,1,0.16655914514353753,0)"><svg viewBox="0 0 250.6668817097129 280" height="280" width="250.6668817097129"><g><svg viewBox="0 0 278.2696 310.8327971711507" height="280" width="250.6668817097129"><g><svg viewBox="0 0 278.2696 310.8327971711507" height="310.8327971711507" width="278.2696"><g id="textblocktransform"><svg viewBox="0 0 278.2696 310.8327971711507" height="310.8327971711507" width="278.2696" id="textblock"><g><svg viewBox="0 0 278.2696 278.2696" height="278.2696" width="278.2696"><g transform="matrix(1,0,0,1,99.51125236020223,89.94321971048298)"><svg viewBox="0 0 79.24709527959556 98.38316057903407" height="98.38316057903407" width="79.24709527959556"><g id="icon-0"><svg xmlns="http://www.w3.org/2000/svg" xmlns:xlink="http://www.w3.org/1999/xlink" version="1.1" x="0" y="0" viewBox="13.300000000000008 5 73.29999999999998 91" enable-background="new 0 0 100 100" xml:space="preserve" height="98.38316057903407" width="79.24709527959556" class="icon-xg-0" data-fill-palette-color="accent" id="xg-0"><g fill="#c9ad8b" data-fill-palette-color="accent"><g fill="#c9ad8b" data-fill-palette-color="accent"><circle cx="50" cy="31.2" r="3.8" fill="#c9ad8b" data-fill-palette-color="accent"></circle></g></g><g fill="#c9ad8b" data-fill-palette-color="accent"><g fill="#c9ad8b" data-fill-palette-color="accent"><path fill="none" d="M53.2 44.4v3.8c0 0.3 0.2 0.5 0.5 0.5s0.5-0.2 0.5-0.5v-3.8c0-0.3-0.2-0.5-0.5-0.5S53.2 44.1 53.2 44.4z"></path><path fill="none" d="M50 43.9c-0.3 0-0.5 0.2-0.5 0.5v3.8c0 0.3 0.2 0.5 0.5 0.5s0.5-0.2 0.5-0.5v-3.8C50.5 44.1 50.3 43.9 50 43.9z"></path><circle fill="none" cx="50" cy="31.2" r="7.5"></circle><path fill="none" d="M45.8 44.4v3.8c0 0.3 0.2 0.5 0.5 0.5s0.5-0.2 0.5-0.5v-3.8c0-0.3-0.2-0.5-0.5-0.5S45.8 44.1 45.8 44.4z"></path><path fill="none" d="M52.3 80.4c-1.2 1.2-3.4 1.2-4.6 0-0.2-0.2-0.5-0.2-0.7 0s-0.2 0.5 0 0.7c0.8 0.8 1.9 1.2 3 1.2 1.1 0 2.2-0.4 3-1.2 0.2-0.2 0.2-0.5 0-0.7S52.5 80.2 52.3 80.4z"></path><path d="M85.6 60.4c0.6 0 1-0.4 1-1s-0.4-1-1-1h-3.8c0-1.4-0.2-2.9-0.4-4.2l3.7-0.7c0.5-0.1 0.9-0.6 0.8-1.2-0.1-0.5-0.6-0.9-1.2-0.8L81 52.2c-0.3-1.4-0.7-2.8-1.2-4.1l3.5-1.4c0.5-0.2 0.8-0.8 0.5-1.3s-0.8-0.8-1.3-0.5l-3.5 1.4c-0.6-1.3-1.3-2.5-2-3.7l3.1-2.1c0.5-0.3 0.6-0.9 0.3-1.4-0.3-0.5-0.9-0.6-1.4-0.3l-3.1 2.1c-0.8-1.2-1.7-2.3-2.7-3.3l2.7-2.7c0.4-0.4 0.4-1 0-1.4s-1-0.4-1.4 0l-2.7 2.7c-1-0.9-2.1-1.8-3.2-2.7 0-0.1 0-0.1 0-0.2l2-3c0.3-0.5 0.2-1.1-0.3-1.4-0.5-0.3-1.1-0.2-1.4 0.3l-0.3 0.4c-0.2-2.8-1.1-5.5-2.5-7.8 6.5-0.6 8.2-5.8 8.2-9.3V5c0 0-1.9 11.2-7.5 11.2H66h-4.8c-3.1-2.3-7-3.8-11.2-3.8s-8.1 1.4-11.2 3.8H34h-0.9C27.5 16.2 25.6 5 25.6 5v7.5c0 3.5 1.7 8.8 8.2 9.3-1.4 2.3-2.2 5-2.5 7.8L31 29.2c-0.3-0.5-0.9-0.6-1.4-0.3-0.5 0.3-0.6 0.9-0.3 1.4l2 3c0 0.1 0 0.1 0 0.2-1.1 0.8-2.2 1.7-3.2 2.7l-2.7-2.7c-0.4-0.4-1-0.4-1.4 0s-0.4 1 0 1.4l2.7 2.7c-1 1-1.9 2.1-2.7 3.3l-3.1-2.1c-0.5-0.3-1.1-0.2-1.4 0.3-0.3 0.5-0.2 1.1 0.3 1.4l3.1 2.1c-0.8 1.2-1.4 2.4-2 3.7l-3.5-1.4c-0.5-0.2-1.1 0-1.3 0.5-0.2 0.5 0 1.1 0.5 1.3l3.5 1.4c-0.5 1.3-0.9 2.7-1.2 4.1l-3.7-0.7c-0.5-0.1-1.1 0.2-1.2 0.8-0.1 0.5 0.2 1.1 0.8 1.2l3.7 0.7c-0.2 1.4-0.4 2.8-0.4 4.2h-3.8c-0.6 0-1 0.4-1 1s0.4 1 1 1h3.8c0 1.4 0.2 2.9 0.4 4.2l-3.7 0.7c-0.5 0.1-0.9 0.6-0.8 1.2 0.1 0.5 0.5 0.8 1 0.8 0.1 0 0.1 0 0.2 0l3.7-0.7c0.3 1.4 0.7 2.8 1.2 4.1l-3.5 1.4c-0.5 0.2-0.8 0.8-0.5 1.3 0.2 0.4 0.5 0.6 0.9 0.6 0.1 0 0.3 0 0.4-0.1l3.5-1.4c0.6 1.3 1.3 2.6 2 3.8l-3.1 2.1c-0.5 0.3-0.6 0.9-0.3 1.4 0.2 0.3 0.5 0.4 0.8 0.4 0.2 0 0.4-0.1 0.6-0.2l3.1-2.1c0.8 1.2 1.7 2.3 2.7 3.3l-2.7 2.7c-0.4 0.4-0.4 1 0 1.4 0.2 0.2 0.5 0.3 0.7 0.3s0.5-0.1 0.7-0.3l2.7-2.7c1 1 2.1 1.9 3.3 2.7l-2.1 3.1c-0.3 0.5-0.2 1.1 0.3 1.4 0.2 0.1 0.4 0.2 0.6 0.2 0.3 0 0.6-0.2 0.8-0.4l2.1-3.1c1.2 0.7 2.5 1.4 3.8 2l-1.4 3.5c-0.2 0.5 0 1.1 0.5 1.3 0.1 0.1 0.3 0.1 0.4 0.1 0.4 0 0.8-0.2 0.9-0.6l1.4-3.5c1.3 0.5 2.7 0.9 4.1 1.2l-0.7 3.7c-0.1 0.5 0.2 1.1 0.8 1.2 0.1 0 0.1 0 0.2 0 0.5 0 0.9-0.3 1-0.8l0.7-3.7c1.4 0.2 2.8 0.4 4.2 0.4V95c0 0.6 0.4 1 1 1s1-0.4 1-1v-3.8c1.4 0 2.9-0.2 4.2-0.4l0.7 3.7c0.1 0.5 0.5 0.8 1 0.8 0.1 0 0.1 0 0.2 0 0.5-0.1 0.9-0.6 0.8-1.2l-0.7-3.7c1.4-0.3 2.8-0.7 4.1-1.2l1.4 3.5c0.2 0.4 0.5 0.6 0.9 0.6 0.1 0 0.3 0 0.4-0.1 0.5-0.2 0.8-0.8 0.5-1.3l-1.4-3.5c1.3-0.6 2.6-1.3 3.8-2l2.1 3.1c0.2 0.3 0.5 0.4 0.8 0.4 0.2 0 0.4-0.1 0.6-0.2 0.5-0.3 0.6-0.9 0.3-1.4l-2.1-3.1c1.2-0.8 2.3-1.7 3.3-2.7l2.7 2.7c0.2 0.2 0.5 0.3 0.7 0.3s0.5-0.1 0.7-0.3c0.4-0.4 0.4-1 0-1.4l-2.7-2.7c1-1 1.9-2.1 2.7-3.3l3.1 2.1c0.2 0.1 0.4 0.2 0.6 0.2 0.3 0 0.6-0.2 0.8-0.4 0.3-0.5 0.2-1.1-0.3-1.4L77 76.2c0.7-1.2 1.4-2.5 2-3.8l3.5 1.4c0.1 0.1 0.3 0.1 0.4 0.1 0.4 0 0.8-0.2 0.9-0.6 0.2-0.5 0-1.1-0.5-1.3l-3.5-1.4c0.5-1.3 0.9-2.7 1.2-4.1l3.7 0.7c0.1 0 0.1 0 0.2 0 0.5 0 0.9-0.3 1-0.8 0.1-0.5-0.2-1.1-0.8-1.2l-3.7-0.7c0.2-1.4 0.4-2.8 0.4-4.2H85.6zM50 23.8c4.1 0 7.5 3.4 7.5 7.5s-3.4 7.5-7.5 7.5-7.5-3.4-7.5-7.5S45.9 23.8 50 23.8zM54.2 44.4v3.8c0 0.3-0.2 0.5-0.5 0.5s-0.5-0.2-0.5-0.5v-3.8c0-0.3 0.2-0.5 0.5-0.5S54.2 44.1 54.2 44.4zM50.5 48.1c0 0.3-0.2 0.5-0.5 0.5s-0.5-0.2-0.5-0.5v-3.8c0-0.3 0.2-0.5 0.5-0.5s0.5 0.2 0.5 0.5V48.1zM53.1 73.4h-6.2L50 54.9 53.1 73.4zM46.8 44.4v3.8c0 0.3-0.2 0.5-0.5 0.5s-0.5-0.2-0.5-0.5v-3.8c0-0.3 0.2-0.5 0.5-0.5S46.8 44.1 46.8 44.4zM31.4 70.5c-0.1-0.3-0.1-0.6-0.1-1v-11c0-1.7 1.1-3.1 2.7-3.7L31.4 70.5zM35.3 73.4c-1.3 0-2.4-0.6-3.2-1.5L35 54.9l3.1 18.5H35.3zM36 54.7h5.5l-2.8 16.6L36 54.7zM39.4 73.4l3.1-18.5 3.1 18.5H39.4zM43.5 54.7H49l-2.8 16.6L43.5 54.7zM53 81.1c-0.8 0.8-1.9 1.2-3 1.2-1.1 0-2.2-0.4-3-1.2-0.2-0.2-0.2-0.5 0-0.7s0.5-0.2 0.7 0c1.2 1.2 3.4 1.2 4.6 0 0.2-0.2 0.5-0.2 0.7 0S53.2 80.9 53 81.1zM51 54.7h5.5l-2.8 16.6L51 54.7zM54.4 73.4l3.1-18.5 3.1 18.5H54.4zM61.2 71.3l-2.8-16.6H64L61.2 71.3zM64.7 73.4h-2.8L65 54.9 67.8 72C67.1 72.9 66 73.4 64.7 73.4zM68.8 69.6c0 0.3-0.1 0.6-0.1 1L66 54.9c1.6 0.5 2.7 2 2.7 3.7V69.6z" fill="#c9ad8b" data-fill-palette-color="accent"></path></g></g></svg></g></svg></g><g id="text-0"><path d="M34.951 86.641l-0.829 2.272-13.83-5.049c-0.456-0.167-0.915-0.237-1.377-0.212-0.462 0.025-0.896 0.133-1.302 0.322-0.398 0.185-0.758 0.445-1.082 0.779-0.317 0.337-0.559 0.733-0.725 1.189v0l-0.409 1.122c-0.167 0.456-0.237 0.915-0.212 1.377 0.032 0.464 0.138 0.901 0.318 1.312 0.189 0.407 0.451 0.771 0.785 1.094 0.337 0.317 0.733 0.559 1.19 0.725v0l13.83 5.049-0.819 2.243-13.83-5.049c-0.456-0.167-0.916-0.234-1.38-0.202-0.462 0.025-0.896 0.133-1.303 0.322-0.403 0.198-0.765 0.464-1.088 0.798-0.317 0.337-0.559 0.733-0.725 1.189v0l-0.41 1.122c-0.167 0.456-0.237 0.915-0.212 1.377 0.032 0.464 0.139 0.898 0.322 1.302 0.191 0.4 0.455 0.759 0.792 1.076 0.334 0.323 0.73 0.568 1.186 0.734v0l13.83 5.049-0.826 2.263-18.886-6.896 0.274-0.75 2.371-0.535c-0.514-0.776-0.834-1.629-0.961-2.559-0.127-0.93-0.022-1.857 0.315-2.783v0l0.066-0.18c0.391-1.071 1.01-1.94 1.857-2.608 0.841-0.67 1.783-1.076 2.826-1.219v0c-0.345-0.392-0.632-0.827-0.86-1.305-0.236-0.474-0.402-0.965-0.496-1.474-0.101-0.511-0.135-1.037-0.102-1.578 0.041-0.545 0.159-1.084 0.353-1.616v0l0.066-0.18c0.278-0.76 0.686-1.426 1.225-1.998 0.533-0.574 1.144-1.019 1.833-1.335 0.686-0.324 1.42-0.505 2.202-0.542 0.784-0.044 1.557 0.073 2.317 0.35v0z" fill="#d5b263" data-fill-palette-color="primary"></path><path d="M46.949 59.409v0c0.648 0.485 1.168 1.068 1.56 1.749 0.391 0.671 0.64 1.385 0.749 2.14 0.113 0.75 0.074 1.505-0.115 2.265-0.184 0.764-0.519 1.47-1.004 2.117v0l-0.964 1.288c-0.489 0.653-1.072 1.173-1.749 1.56-0.676 0.396-1.391 0.648-2.146 0.757-0.751 0.103-1.506 0.065-2.265-0.115-0.76-0.189-1.464-0.527-2.112-1.012v0l-7.266-5.438c-0.648-0.485-1.17-1.065-1.566-1.741-0.392-0.681-0.642-1.394-0.749-2.141-0.109-0.755-0.068-1.513 0.121-2.272 0.18-0.758 0.515-1.464 1.004-2.118v0l0.964-1.288c0.485-0.648 1.068-1.168 1.749-1.56 0.676-0.396 1.389-0.646 2.14-0.749 0.75-0.113 1.505-0.074 2.265 0.115 0.764 0.184 1.47 0.519 2.118 1.004v0zM45.605 61.424l-7.477-5.597c-0.389-0.291-0.808-0.491-1.257-0.6-0.449-0.109-0.896-0.131-1.34-0.067-0.434 0.062-0.854 0.207-1.26 0.434-0.4 0.231-0.746 0.541-1.037 0.93v0l-0.964 1.288c-0.291 0.389-0.491 0.808-0.6 1.257-0.103 0.453-0.126 0.9-0.068 1.34 0.068 0.438 0.217 0.858 0.449 1.259 0.227 0.406 0.535 0.754 0.924 1.045v0l7.477 5.596c0.389 0.291 0.81 0.488 1.263 0.592 0.449 0.109 0.894 0.134 1.334 0.075 0.438-0.068 0.861-0.215 1.266-0.442 0.4-0.231 0.746-0.541 1.038-0.93v0l0.964-1.288c0.291-0.389 0.491-0.808 0.599-1.257 0.103-0.453 0.124-0.897 0.062-1.332-0.064-0.444-0.211-0.866-0.443-1.266-0.231-0.4-0.541-0.746-0.93-1.037z" fill="#d5b263" data-fill-palette-color="primary"></path><path d="M73.404 43.24l-1.887 1.512-9.207-11.488c-0.304-0.379-0.66-0.677-1.067-0.895-0.408-0.218-0.835-0.351-1.281-0.4-0.436-0.048-0.879-0.013-1.329 0.105-0.446 0.124-0.858 0.337-1.236 0.641v0l-1.256 1.006c-0.379 0.304-0.677 0.66-0.895 1.068-0.213 0.413-0.347 0.84-0.4 1.28-0.044 0.441-0.004 0.885 0.12 1.331 0.118 0.45 0.329 0.864 0.633 1.243v0l9.207 11.488-1.879 1.506-12.574-15.689 0.624-0.499 2.305 0.772c-0.037-0.93 0.132-1.826 0.504-2.687 0.373-0.861 0.944-1.6 1.713-2.216v0l0.474-0.379c0.632-0.506 1.326-0.864 2.083-1.073 0.753-0.215 1.506-0.278 2.26-0.191 0.754 0.078 1.476 0.304 2.164 0.678 0.694 0.369 1.293 0.87 1.799 1.501v0z" fill="#d5b263" data-fill-palette-color="primary"></path><path d="M97.876 25.088v0c0.334 0.745 0.489 1.492 0.463 2.243-0.019 0.748-0.189 1.457-0.51 2.126-0.312 0.672-0.751 1.284-1.317 1.833-0.56 0.547-1.213 0.988-1.957 1.323v0l-1.468 0.659c-0.738 0.332-1.51 0.508-2.314 0.528-0.795 0.024-1.559-0.095-2.29-0.358-0.726-0.266-1.389-0.656-1.99-1.17-0.597-0.523-1.061-1.154-1.393-1.893v0l-0.331-0.738 2.035-1.346 0.547 1.218c0.199 0.443 0.478 0.817 0.837 1.122 0.365 0.302 0.766 0.529 1.203 0.68 0.435 0.145 0.894 0.212 1.378 0.202 0.481-0.016 0.943-0.124 1.385-0.322v0l1.468-0.659c0.443-0.199 0.837-0.457 1.183-0.775 0.348-0.312 0.624-0.661 0.827-1.048 0.209-0.39 0.329-0.798 0.359-1.226 0.03-0.428-0.055-0.863-0.253-1.306v0c-0.296-0.658-0.682-1.132-1.159-1.421-0.468-0.285-1.003-0.463-1.604-0.533-0.595-0.073-1.235-0.067-1.921 0.019-0.686 0.086-1.387 0.179-2.104 0.279-0.717 0.1-1.431 0.165-2.141 0.196-0.711 0.031-1.39-0.041-2.039-0.216-0.642-0.178-1.238-0.494-1.79-0.949-0.552-0.455-1.024-1.119-1.416-1.993v0c-0.332-0.738-0.491-1.48-0.477-2.225 0.013-0.745 0.163-1.449 0.45-2.11 0.296-0.658 0.715-1.256 1.257-1.796 0.536-0.536 1.176-0.971 1.92-1.306v0l1.284-0.576c0.745-0.334 1.507-0.506 2.286-0.516 0.783-0.019 1.531 0.108 2.244 0.379 0.704 0.268 1.346 0.668 1.924 1.199 0.573 0.534 1.025 1.171 1.356 1.909v0l0.034 0.074-2.036 1.347-0.248-0.554c-0.199-0.443-0.468-0.821-0.809-1.135-0.346-0.31-0.726-0.547-1.139-0.708-0.416-0.153-0.857-0.229-1.322-0.228-0.462 0.008-0.915 0.111-1.358 0.31v0l-1.283 0.576c-0.443 0.199-0.828 0.453-1.155 0.763-0.33 0.303-0.584 0.643-0.763 1.019-0.175 0.367-0.27 0.765-0.285 1.193-0.011 0.419 0.082 0.85 0.281 1.293v0c0.285 0.634 0.661 1.086 1.13 1.356 0.463 0.273 0.992 0.438 1.587 0.497 0.598 0.064 1.24 0.053 1.926-0.033 0.686-0.086 1.384-0.17 2.094-0.252 0.716-0.085 1.432-0.136 2.149-0.155 0.716-0.018 1.4 0.063 2.051 0.244 0.651 0.181 1.25 0.504 1.798 0.967 0.554 0.461 1.026 1.125 1.416 1.993z" fill="#d5b263" data-fill-palette-color="primary"></path><path d="M124.723 24.019l-2.171 0.391c-0.717 0.129-1.419 0.115-2.105-0.042-0.686-0.157-1.308-0.429-1.864-0.816-0.557-0.393-1.032-0.88-1.425-1.46-0.386-0.582-0.644-1.234-0.774-1.958v0l-2.218-12.308-3.555 0.641-0.408-2.261 3.555-0.64-0.856-4.75 2.3-0.816 0.926 5.138 5.029-0.906 0.408 2.261-5.029 0.906 2.239 12.428c0.072 0.398 0.215 0.753 0.429 1.064 0.208 0.319 0.465 0.584 0.77 0.796 0.304 0.206 0.643 0.354 1.016 0.444 0.372 0.084 0.756 0.09 1.155 0.019v0l2.171-0.392z" fill="#d5b263" data-fill-palette-color="primary"></path><path d="M154.245 18.437v0c-0.04 0.809-0.232 1.566-0.577 2.271-0.338 0.699-0.79 1.305-1.356 1.818-0.559 0.513-1.206 0.903-1.941 1.171-0.736 0.275-1.508 0.392-2.317 0.352v0l-1.607-0.079c-0.815-0.04-1.572-0.233-2.272-0.577-0.706-0.339-1.315-0.791-1.827-1.356-0.506-0.565-0.896-1.212-1.171-1.942-0.268-0.736-0.382-1.508-0.343-2.317v0l0.445-9.065c0.04-0.809 0.229-1.566 0.568-2.272 0.345-0.706 0.797-1.312 1.355-1.817 0.565-0.513 1.216-0.903 1.952-1.171 0.729-0.275 1.502-0.392 2.317-0.352v0l1.607 0.079c0.809 0.04 1.566 0.232 2.272 0.577 0.706 0.339 1.312 0.79 1.817 1.356 0.513 0.559 0.903 1.206 1.171 1.941 0.275 0.736 0.392 1.508 0.353 2.317v0l-0.233 4.73-11.005-0.54-0.22 4.467c-0.024 0.485 0.048 0.945 0.216 1.378 0.161 0.433 0.389 0.816 0.683 1.148 0.301 0.325 0.66 0.593 1.075 0.803 0.416 0.203 0.866 0.316 1.351 0.339v0l1.607 0.079c0.485 0.024 0.944-0.045 1.378-0.206 0.434-0.168 0.813-0.399 1.138-0.693 0.332-0.301 0.6-0.659 0.803-1.075 0.203-0.416 0.316-0.866 0.34-1.351v0l0.065-1.334 2.396 0.512zM152.135 12.103l0.147-2.982c0.024-0.485-0.045-0.944-0.206-1.377-0.161-0.433-0.392-0.816-0.694-1.149-0.295-0.325-0.65-0.592-1.064-0.802-0.416-0.203-0.866-0.316-1.351-0.339v0l-1.607-0.079c-0.485-0.024-0.944 0.045-1.378 0.206-0.434 0.168-0.817 0.399-1.149 0.693-0.325 0.301-0.59 0.66-0.792 1.075-0.209 0.415-0.326 0.865-0.35 1.351v0l-0.146 2.981z" fill="#d5b263" data-fill-palette-color="primary"></path><path d="M182.769 12.547l-2.314-0.669c-0.467-0.135-0.929-0.174-1.388-0.117-0.459 0.057-0.885 0.194-1.277 0.411-0.384 0.212-0.724 0.5-1.019 0.864-0.299 0.356-0.516 0.764-0.648 1.224v0l-3.975 13.754-2.314-0.668 5.582-19.315 0.768 0.222 0.696 2.329c0.739-0.566 1.568-0.944 2.487-1.135 0.919-0.191 1.851-0.15 2.798 0.123v0l1.351 0.391z" fill="#d5b263" data-fill-palette-color="primary"></path><path d="M205.731 37.218v0c-0.389 0.71-0.893 1.307-1.511 1.792-0.61 0.481-1.281 0.829-2.014 1.043-0.727 0.217-1.479 0.286-2.258 0.205-0.782-0.075-1.528-0.306-2.238-0.695v0l-0.533-0.292c-0.793-0.434-1.44-1-1.942-1.698-0.5-0.689-0.835-1.453-1.006-2.293v0l-4.68 8.547-2.112-1.157 13.526-24.699 0.701 0.384 0.172 2.425c0.845-0.391 1.736-0.58 2.675-0.566 0.938 0.014 1.839 0.257 2.703 0.731v0l0.532 0.292c0.71 0.389 1.307 0.893 1.791 1.511 0.487 0.613 0.835 1.284 1.044 2.013 0.217 0.727 0.286 1.479 0.205 2.259-0.075 0.782-0.306 1.528-0.695 2.238v0zM203.547 36.172l4.486-8.191c0.233-0.426 0.372-0.869 0.416-1.33 0.044-0.46 0.004-0.906-0.122-1.335-0.123-0.421-0.326-0.817-0.607-1.187-0.285-0.364-0.641-0.662-1.067-0.896v0l-1.411-0.772c-0.426-0.233-0.869-0.372-1.33-0.417-0.463-0.038-0.909 0.002-1.336 0.122-0.424 0.129-0.819 0.336-1.182 0.622-0.37 0.282-0.671 0.636-0.905 1.062v0l-4.486 8.191c-0.233 0.426-0.369 0.871-0.407 1.334-0.044 0.46-0.007 0.904 0.113 1.331 0.129 0.424 0.335 0.822 0.616 1.192 0.285 0.364 0.641 0.662 1.067 0.895v0l1.411 0.773c0.426 0.233 0.869 0.372 1.33 0.417 0.463 0.038 0.906-0.004 1.327-0.127 0.43-0.126 0.827-0.331 1.191-0.617 0.364-0.285 0.662-0.641 0.896-1.067z" fill="#d5b263" data-fill-palette-color="primary"></path><path d="M234.927 35.485l-2.124-1.83 2.108-2.445 2.123 1.83zM218.503 54.245l-1.831-1.579 13.126-15.229 1.832 1.579z" fill="#d5b263" data-fill-palette-color="primary"></path><path d="M239.836 80.387l-9.395-12.91 1.955-1.423 3.954 5.432 18.858-13.724-6.236-3.771 1.947-1.417 6.244 3.765 1.488 2.046-20.813 15.147 3.954 5.432z" fill="#d5b263" data-fill-palette-color="primary"></path><path d="M257.825 106.136v0c-0.89 0.336-1.793 0.485-2.707 0.448-0.911-0.046-1.771-0.251-2.58-0.618-0.808-0.366-1.527-0.877-2.157-1.533-0.636-0.654-1.123-1.429-1.46-2.325v0l-0.425-1.127c-0.336-0.89-0.482-1.794-0.439-2.711 0.037-0.915 0.237-1.78 0.601-2.595 0.366-0.808 0.877-1.527 1.533-2.157 0.66-0.638 1.436-1.125 2.326-1.461v0l0.682-0.257 1.265 2.237-1.051 0.397c-0.587 0.221-1.091 0.538-1.513 0.948-0.428 0.414-0.762 0.886-1.002 1.416-0.24 0.53-0.375 1.089-0.405 1.678-0.028 0.595 0.068 1.185 0.289 1.772v0l0.34 0.9c0.221 0.587 0.539 1.094 0.952 1.522 0.411 0.422 0.882 0.752 1.412 0.993 0.528 0.234 1.089 0.364 1.684 0.392 0.588 0.031 1.176-0.065 1.763-0.286v0l2.187-0.825c0.587-0.221 1.094-0.539 1.522-0.952 0.422-0.411 0.754-0.879 0.996-1.403 0.234-0.528 0.366-1.086 0.396-1.674 0.028-0.595-0.068-1.185-0.289-1.773v0l-0.664-1.761 2.253-0.849 0.664 1.761c0.221 0.587 0.539 1.094 0.952 1.522 0.411 0.422 0.879 0.754 1.403 0.996 0.522 0.236 1.08 0.368 1.674 0.396 0.588 0.031 1.179-0.066 1.773-0.29v0l1.278-0.482c0.593-0.224 1.101-0.541 1.522-0.952 0.428-0.414 0.76-0.881 0.996-1.403 0.234-0.528 0.366-1.086 0.396-1.674 0.028-0.595-0.068-1.185-0.29-1.773v0l-0.339-0.899c-0.221-0.587-0.539-1.094-0.952-1.523-0.411-0.422-0.879-0.754-1.403-0.995-0.524-0.242-1.083-0.377-1.678-0.406-0.588-0.031-1.179 0.066-1.772 0.29v0l-1.061 0.4-0.507-2.523 0.672-0.253c0.896-0.338 1.8-0.484 2.711-0.439 0.909 0.039 1.771 0.241 2.585 0.604 0.811 0.372 1.532 0.889 2.164 1.552 0.638 0.66 1.125 1.436 1.461 2.326v0l0.425 1.127c0.338 0.896 0.484 1.8 0.438 2.711-0.039 0.909-0.242 1.767-0.607 2.576-0.372 0.811-0.885 1.534-1.539 2.17-0.657 0.63-1.433 1.113-2.33 1.451v0l-0.899 0.339c-0.625 0.236-1.252 0.378-1.882 0.429-0.63 0.05-1.248 0.016-1.855-0.101-0.6-0.12-1.178-0.313-1.733-0.58-0.555-0.267-1.071-0.602-1.547-1.006v0c-0.079 0.614-0.238 1.204-0.479 1.77-0.241 0.567-0.55 1.094-0.928 1.583-0.372 0.486-0.811 0.918-1.317 1.297-0.512 0.381-1.081 0.689-1.706 0.924v0z" fill="#d5b263" data-fill-palette-color="primary"></path><path d="M16.093 201.877l-0.843-2.299 14.023-5.14c0.462-0.169 0.865-0.414 1.207-0.734 0.34-0.326 0.605-0.692 0.793-1.099 0.189-0.407 0.297-0.845 0.326-1.316 0.022-0.468-0.051-0.933-0.22-1.395v0l-0.418-1.14c-0.169-0.462-0.414-0.865-0.734-1.208-0.326-0.34-0.693-0.608-1.102-0.803-0.409-0.195-0.849-0.307-1.32-0.335-0.468-0.022-0.933 0.051-1.395 0.221v0l-14.023 5.14-0.835-2.28 14.022-5.141c0.462-0.169 0.864-0.417 1.204-0.743 0.343-0.32 0.606-0.689 0.79-1.108 0.186-0.413 0.294-0.855 0.322-1.326 0.022-0.468-0.051-0.933-0.22-1.395v0l-0.418-1.14c-0.167-0.456-0.411-0.855-0.73-1.198-0.326-0.34-0.693-0.608-1.103-0.803-0.407-0.189-0.844-0.294-1.312-0.316-0.47-0.029-0.937 0.042-1.399 0.211v0l-14.023 5.14-0.842-2.299 19.143-7.017 0.282 0.769-1.488 1.968c0.906 0.257 1.713 0.705 2.421 1.343 0.708 0.638 1.234 1.426 1.578 2.364v0l0.066 0.18c0.399 1.089 0.489 2.167 0.269 3.232-0.218 1.071-0.68 2.006-1.386 2.804v0c0.517 0.076 1.019 0.223 1.508 0.438 0.497 0.22 0.949 0.493 1.356 0.818 0.409 0.331 0.778 0.721 1.107 1.168 0.329 0.447 0.591 0.936 0.786 1.468v0l0.069 0.19c0.283 0.773 0.401 1.556 0.355 2.349-0.038 0.797-0.221 1.543-0.548 2.238-0.319 0.699-0.77 1.32-1.354 1.865-0.577 0.542-1.252 0.955-2.025 1.238v0z" fill="#d5b263" data-fill-palette-color="primary"></path><path d="M39.864 227.571v0c-0.658 0.494-1.371 0.836-2.14 1.025-0.769 0.189-1.536 0.23-2.301 0.121-0.765-0.109-1.49-0.361-2.176-0.757-0.686-0.396-1.276-0.923-1.77-1.581v0l-0.985-1.311c-0.494-0.658-0.836-1.371-1.025-2.14-0.189-0.769-0.23-1.536-0.122-2.301 0.113-0.76 0.365-1.485 0.758-2.176 0.396-0.686 0.923-1.276 1.581-1.77v0l7.354-5.524c0.658-0.494 1.371-0.836 2.14-1.026 0.778-0.188 1.545-0.229 2.301-0.121 0.765 0.109 1.49 0.361 2.176 0.757 0.691 0.392 1.284 0.917 1.778 1.576v0l0.985 1.31c0.494 0.658 0.833 1.373 1.017 2.147 0.189 0.769 0.23 1.536 0.121 2.3-0.103 0.761-0.356 1.486-0.757 2.176-0.396 0.686-0.923 1.276-1.581 1.77v0zM38.28 225.698l7.58-5.694c0.394-0.296 0.708-0.646 0.945-1.052 0.232-0.41 0.379-0.837 0.442-1.281 0.059-0.449 0.036-0.901-0.068-1.354-0.114-0.455-0.318-0.879-0.614-1.272v0l-0.985-1.311c-0.292-0.388-0.64-0.7-1.045-0.936-0.41-0.232-0.839-0.382-1.287-0.45-0.444-0.063-0.893-0.038-1.348 0.076-0.459 0.108-0.885 0.31-1.278 0.606v0l-7.581 5.694c-0.394 0.296-0.706 0.649-0.938 1.059-0.236 0.405-0.385 0.829-0.448 1.274-0.059 0.449-0.034 0.903 0.074 1.361 0.114 0.455 0.316 0.876 0.608 1.265v0l0.984 1.31c0.296 0.394 0.646 0.708 1.051 0.945 0.406 0.226 0.833 0.374 1.282 0.442 0.444 0.063 0.895 0.04 1.353-0.068 0.455-0.114 0.879-0.318 1.273-0.614z" fill="#d5b263" data-fill-palette-color="primary"></path><path d="M61.024 253.992l-1.914-1.528 9.322-11.669c0.307-0.385 0.525-0.803 0.652-1.254 0.122-0.455 0.158-0.906 0.108-1.351-0.055-0.45-0.19-0.881-0.404-1.294-0.224-0.412-0.528-0.771-0.913-1.078v0l-1.281-1.023c-0.379-0.303-0.795-0.518-1.245-0.646-0.455-0.122-0.908-0.16-1.359-0.114-0.446 0.05-0.874 0.187-1.286 0.41-0.417 0.219-0.779 0.522-1.087 0.906v0l-9.321 11.669-1.914-1.528 12.726-15.93 0.64 0.511-0.251 2.455c0.908-0.25 1.83-0.286 2.767-0.108 0.937 0.178 1.795 0.579 2.575 1.202v0l0.482 0.385c0.643 0.514 1.15 1.122 1.522 1.824 0.376 0.697 0.606 1.43 0.692 2.198 0.09 0.763 0.027 1.528-0.19 2.296-0.212 0.763-0.575 1.466-1.088 2.109v0z" fill="#d5b263" data-fill-palette-color="primary"></path><path d="M94.096 265.341v0c-0.336 0.751-0.795 1.374-1.378 1.866-0.58 0.487-1.232 0.838-1.956 1.054-0.718 0.218-1.474 0.298-2.268 0.238-0.8-0.062-1.575-0.261-2.327-0.597v0l-1.487-0.665c-0.751-0.336-1.405-0.798-1.963-1.387-0.557-0.589-0.982-1.248-1.276-1.978-0.294-0.73-0.447-1.497-0.457-2.3-0.011-0.803 0.152-1.58 0.488-2.331v0l0.334-0.748 2.397 0.639-0.554 1.238c-0.201 0.45-0.294 0.914-0.279 1.394 0.009 0.477 0.105 0.93 0.29 1.36 0.185 0.43 0.445 0.823 0.78 1.18 0.338 0.351 0.732 0.627 1.181 0.827v0l1.488 0.665c0.45 0.201 0.911 0.326 1.384 0.375 0.47 0.055 0.922 0.028 1.355-0.081 0.43-0.103 0.819-0.288 1.167-0.553 0.342-0.268 0.613-0.627 0.814-1.077v0c0.297-0.665 0.396-1.275 0.297-1.829-0.099-0.554-0.326-1.081-0.679-1.579-0.354-0.498-0.793-0.979-1.317-1.442-0.527-0.457-1.071-0.926-1.633-1.406-0.558-0.471-1.087-0.966-1.586-1.485-0.508-0.516-0.912-1.076-1.209-1.683-0.304-0.609-0.469-1.274-0.494-1.994-0.028-0.73 0.154-1.535 0.548-2.415v0c0.339-0.757 0.795-1.381 1.369-1.871 0.568-0.493 1.201-0.852 1.901-1.078 0.694-0.229 1.425-0.32 2.194-0.272 0.778 0.045 1.543 0.235 2.294 0.572v0l1.302 0.582c0.751 0.336 1.398 0.799 1.94 1.388 0.538 0.581 0.945 1.232 1.221 1.954 0.272 0.713 0.403 1.47 0.392 2.27-0.014 0.792-0.189 1.563-0.525 2.315v0l-0.033 0.074-2.396-0.64 0.252-0.563c0.201-0.45 0.303-0.91 0.307-1.381 0.01-0.468-0.068-0.913-0.234-1.335-0.16-0.419-0.399-0.803-0.716-1.152-0.32-0.343-0.704-0.614-1.154-0.815v0l-1.302-0.582c-0.45-0.201-0.9-0.325-1.353-0.372-0.455-0.041-0.882-0.003-1.281 0.114-0.402 0.123-0.768 0.322-1.098 0.596-0.329 0.274-0.595 0.636-0.795 1.085v0c-0.286 0.64-0.373 1.23-0.259 1.768 0.108 0.536 0.34 1.05 0.696 1.542 0.35 0.489 0.791 0.967 1.321 1.433 0.527 0.457 1.062 0.929 1.606 1.416 0.552 0.483 1.075 0.991 1.569 1.522 0.503 0.528 0.902 1.098 1.198 1.711 0.301 0.615 0.463 1.286 0.485 2.012 0.02 0.733-0.168 1.54-0.561 2.421z" fill="#d5b263" data-fill-palette-color="primary"></path><path d="M121.376 277.173l-2.191-0.392c-0.73-0.131-1.397-0.391-1.999-0.78-0.594-0.394-1.088-0.873-1.48-1.437-0.391-0.57-0.669-1.202-0.832-1.896-0.165-0.687-0.182-1.396-0.051-2.127v0l2.236-12.49-3.606-0.645 0.41-2.291 3.606 0.645 0.863-4.82 2.481 0.033-0.934 5.219 5.09 0.911-0.41 2.291-5.09-0.911-2.255 12.599c-0.073 0.405-0.067 0.797 0.015 1.175 0.091 0.373 0.243 0.712 0.456 1.017 0.219 0.307 0.491 0.568 0.815 0.783 0.325 0.216 0.689 0.36 1.095 0.433v0l2.191 0.392z" fill="#d5b263" data-fill-palette-color="primary"></path><path d="M154.912 271.899v0c0.041 0.822-0.075 1.604-0.349 2.348-0.274 0.743-0.67 1.401-1.189 1.974-0.519 0.573-1.134 1.032-1.846 1.378-0.712 0.346-1.479 0.54-2.301 0.581v0l-1.637 0.082c-0.822 0.041-1.604-0.075-2.348-0.35-0.743-0.274-1.401-0.67-1.974-1.188-0.566-0.519-1.026-1.134-1.378-1.846-0.346-0.712-0.54-1.479-0.581-2.301v0l-0.457-9.187c-0.041-0.822 0.075-1.604 0.349-2.347 0.28-0.75 0.676-1.408 1.188-1.974 0.519-0.573 1.134-1.032 1.846-1.379 0.712-0.353 1.479-0.55 2.301-0.59v0l1.637-0.082c0.822-0.041 1.605 0.079 2.348 0.359 0.743 0.274 1.401 0.67 1.974 1.189 0.573 0.512 1.032 1.127 1.379 1.846 0.346 0.712 0.54 1.479 0.58 2.301v0l0.239 4.79-11.157 0.556 0.226 4.537c0.024 0.492 0.142 0.949 0.352 1.371 0.203 0.422 0.471 0.784 0.803 1.084 0.339 0.301 0.729 0.534 1.17 0.702 0.44 0.16 0.903 0.229 1.388 0.204v0l1.637-0.081c0.492-0.024 0.949-0.138 1.371-0.342 0.415-0.21 0.776-0.481 1.084-0.814 0.301-0.332 0.535-0.719 0.702-1.159 0.16-0.44 0.228-0.906 0.204-1.398v0l-0.067-1.354 2.465 0.272zM152.152 265.715l-0.15-3.022c-0.024-0.492-0.138-0.949-0.342-1.371-0.21-0.422-0.481-0.783-0.814-1.084-0.339-0.301-0.726-0.535-1.16-0.702-0.44-0.16-0.906-0.228-1.398-0.204v0l-1.637 0.082c-0.485 0.024-0.939 0.138-1.361 0.341-0.422 0.21-0.786 0.482-1.094 0.815-0.301 0.332-0.532 0.719-0.692 1.159-0.167 0.441-0.239 0.907-0.214 1.398v0l0.151 3.022z" fill="#d5b263" data-fill-palette-color="primary"></path><path d="M178.55 253.639l-2.352 0.681c-0.467 0.135-0.881 0.353-1.244 0.654-0.364 0.295-0.658 0.64-0.88 1.034-0.215 0.399-0.349 0.831-0.405 1.297-0.061 0.467-0.025 0.934 0.111 1.401v0l4.035 13.948-2.352 0.68-5.666-19.585 0.787-0.228 1.859 1.621c0.32-0.886 0.822-1.66 1.509-2.322 0.686-0.662 1.509-1.132 2.468-1.409v0l1.371-0.396z" fill="#d5b263" data-fill-palette-color="primary"></path><path d="M210.192 251.987v0c0.395 0.722 0.631 1.477 0.709 2.265 0.078 0.788 0.008 1.553-0.21 2.294-0.217 0.742-0.571 1.423-1.061 2.046-0.49 0.622-1.096 1.13-1.818 1.525v0l-0.541 0.296c-0.805 0.44-1.639 0.686-2.504 0.736-0.865 0.05-1.701-0.08-2.51-0.391v0l4.741 8.663-2.148 1.176-13.707-25.05 0.719-0.393 2.167 1.178c0.119-0.934 0.442-1.799 0.968-2.594 0.526-0.795 1.227-1.433 2.103-1.912v0l0.541-0.296c0.722-0.395 1.479-0.628 2.27-0.7 0.788-0.078 1.553-0.008 2.295 0.209 0.738 0.211 1.42 0.565 2.045 1.061 0.622 0.49 1.13 1.096 1.525 1.818v0zM208.112 253.286l-4.552-8.317c-0.236-0.432-0.538-0.794-0.905-1.085-0.373-0.288-0.775-0.495-1.205-0.621-0.436-0.123-0.886-0.165-1.349-0.126-0.466 0.047-0.915 0.189-1.347 0.425v0l-1.438 0.787c-0.426 0.233-0.785 0.533-1.076 0.901-0.288 0.373-0.498 0.776-0.63 1.209-0.126 0.43-0.165 0.879-0.118 1.345 0.042 0.469 0.181 0.92 0.417 1.352v0l4.551 8.317c0.236 0.432 0.541 0.792 0.914 1.08 0.367 0.291 0.766 0.5 1.196 0.626 0.436 0.123 0.889 0.163 1.359 0.122 0.466-0.047 0.912-0.188 1.338-0.421v0l1.438-0.787c0.432-0.236 0.794-0.538 1.085-0.905 0.282-0.37 0.489-0.771 0.621-1.205 0.126-0.43 0.168-0.88 0.126-1.349-0.047-0.466-0.189-0.915-0.425-1.348z" fill="#d5b263" data-fill-palette-color="primary"></path><path d="M215.317 223.088l-2.155 1.854-2.131-2.478 2.155-1.854zM231.659 242.385l-1.856 1.596-13.295-15.458 1.857-1.597z" fill="#d5b263" data-fill-palette-color="primary"></path><path d="M256.187 212.807l-9.547 13.075-1.978-1.444 4.016-5.5-19.106-13.95-1.703 7.188-1.978-1.444 1.703-7.188 1.516-2.076 21.083 15.394 4.016-5.499z" fill="#d5b263" data-fill-palette-color="primary"></path><path d="M264.485 177.654v0c0.902 0.342 1.686 0.833 2.352 1.475 0.666 0.642 1.185 1.376 1.557 2.202 0.368 0.818 0.572 1.688 0.612 2.612 0.04 0.924-0.113 1.84-0.457 2.748v0l-0.43 1.136c-0.344 0.908-0.838 1.699-1.482 2.37-0.642 0.666-1.373 1.186-2.193 1.561-0.824 0.366-1.698 0.569-2.621 0.609-0.926 0.046-1.84-0.102-2.743-0.444v0l-0.691-0.262 0.532-2.546 1.07 0.405c0.593 0.225 1.191 0.321 1.794 0.29 0.595-0.027 1.162-0.162 1.701-0.406 0.539-0.243 1.02-0.58 1.443-1.011 0.414-0.427 0.735-0.941 0.962-1.54v0l0.344-0.908c0.227-0.599 0.327-1.196 0.3-1.791-0.031-0.603-0.169-1.171-0.415-1.705-0.245-0.533-0.581-1.01-1.006-1.43-0.434-0.417-0.947-0.737-1.54-0.962v0l-2.223-0.842c-0.593-0.225-1.19-0.324-1.791-0.3-0.597 0.034-1.161 0.17-1.691 0.409-0.531 0.239-1.007 0.574-1.431 1.006-0.414 0.427-0.735 0.941-0.962 1.54v0l-0.677 1.788-2.29-0.867 0.677-1.789c0.227-0.599 0.324-1.197 0.29-1.794-0.025-0.601-0.157-1.167-0.396-1.697-0.239-0.531-0.574-1.007-1.005-1.431-0.427-0.414-0.941-0.735-1.54-0.962v0l-1.306-0.494c-0.593-0.225-1.19-0.324-1.791-0.3-0.597 0.034-1.161 0.17-1.691 0.409-0.531 0.239-1.007 0.574-1.43 1.006-0.414 0.427-0.735 0.941-0.962 1.54v0l-0.344 0.908c-0.227 0.599-0.327 1.196-0.3 1.791 0.031 0.603 0.165 1.173 0.402 1.71 0.237 0.537 0.569 1.012 0.996 1.427 0.431 0.423 0.943 0.747 1.536 0.971v0l1.079 0.409-1.298 2.257-0.691-0.262c-0.902-0.342-1.685-0.837-2.348-1.485-0.666-0.642-1.186-1.373-1.561-2.192-0.366-0.824-0.569-1.698-0.609-2.622-0.037-0.93 0.116-1.849 0.461-2.758v0l0.43-1.135c0.344-0.908 0.837-1.696 1.478-2.361 0.642-0.666 1.371-1.183 2.189-1.552 0.826-0.372 1.701-0.578 2.625-0.618 0.924-0.04 1.837 0.111 2.739 0.453v0l0.918 0.348c0.631 0.239 1.204 0.553 1.72 0.944 0.512 0.381 0.959 0.821 1.34 1.319 0.384 0.492 0.697 1.025 0.941 1.6 0.244 0.576 0.409 1.176 0.498 1.801v0c0.467-0.415 0.983-0.757 1.546-1.027 0.564-0.27 1.152-0.462 1.765-0.575 0.609-0.123 1.235-0.156 1.878-0.101 0.639 0.047 1.276 0.191 1.913 0.433v0z" fill="#d5b263" data-fill-palette-color="primary"></path><path d="M1.519 140.616c0-6.024 4.884-10.908 10.908-10.908 6.024 0 10.908 4.884 10.908 10.908 0 6.024-4.884 10.908-10.908 10.908-6.024 0-10.908-4.884-10.908-10.908z" fill="#d5b263" data-fill-palette-color="primary"></path><path d="M254.935 140.616c0-6.024 4.884-10.908 10.908-10.908 6.024 0 10.908 4.884 10.907 10.908 0 6.024-4.884 10.908-10.907 10.908-6.024 0-10.908-4.884-10.908-10.908z" fill="#d5b263" data-fill-palette-color="primary"></path></g><g id="text-1"></g></svg></g><g transform="matrix(1,0,0,1,53.1494936,295.95058)"><svg viewBox="0 0 171.97061280000003 14.882217171150646" height="14.882217171150646" width="171.97061280000003"><g transform="matrix(1,0,0,1,0,0)"><svg width="171.97061280000003" viewBox="1.54 -37.35 557.11 48.21" height="14.882217171150646" data-palette-color="#d5b263"><path d="M8.91 0L4.93 0 4.93-29.2Q4.93-32.98 6.7-35.17 8.47-37.35 12.11-37.35L12.11-37.35Q13.18-37.35 14.29-37.11 15.41-36.87 16.16-36.52L16.16-36.52 15.28-33.64Q13.7-34.16 12.45-34.16L12.45-34.16Q8.91-34.16 8.91-29.15L8.91-29.15 8.91 0ZM14.26-21.73L1.54-21.73 1.54-24.78 5.08-24.98 14.26-24.98 14.26-21.73ZM23 0L19.04 0 19.04-24.98 23-24.98 23 0ZM21.09-30.25L21.09-30.25Q19.89-30.25 19.16-30.99 18.43-31.74 18.43-32.98L18.43-32.98Q18.43-34.13 19.16-34.86 19.89-35.6 21.09-35.6L21.09-35.6Q22.29-35.6 23.02-34.86 23.75-34.13 23.75-32.98L23.75-32.98Q23.75-31.74 23.02-30.99 22.29-30.25 21.09-30.25ZM35.57 0L31.61 0 31.61-24.98 34.91-24.98 35.27-21.39 35.37-21.39Q37.18-23.17 39.2-24.39 41.23-25.61 43.82-25.61L43.82-25.61Q47.72-25.61 49.56-23.13 51.39-20.65 51.39-15.87L51.39-15.87 51.39 0 47.48 0 47.48-15.36Q47.48-18.92 46.33-20.56 45.19-22.19 42.57-22.19L42.57-22.19Q40.64-22.19 39.08-21.17 37.52-20.14 35.57-18.19L35.57-18.19 35.57 0ZM68.13 0.61L68.13 0.61Q63.47 0.61 60.65-2.8 57.83-6.2 57.83-12.45L57.83-12.45Q57.83-16.5 59.36-19.46 60.88-22.41 63.36-24.01 65.84-25.61 68.69-25.61L68.69-25.61Q70.87-25.61 72.49-24.84 74.11-24.07 75.75-22.71L75.75-22.71 75.6-27 75.6-36.74 79.58-36.74 79.58 0 76.29 0 75.97-2.98 75.82-2.98Q74.33-1.51 72.38-0.45 70.43 0.61 68.13 0.61ZM69.01-2.71L69.01-2.71Q70.79-2.71 72.38-3.58 73.97-4.44 75.6-6.23L75.6-6.23 75.6-19.58Q73.94-21.04 72.43-21.68 70.92-22.31 69.33-22.31L69.33-22.31Q67.25-22.31 65.58-21.07 63.91-19.82 62.91-17.6 61.91-15.38 61.91-12.45L61.91-12.45Q61.91-7.89 63.76-5.3 65.62-2.71 69.01-2.71ZM104.48 10.86L104.48 10.86Q103.65 10.86 102.92 10.71 102.18 10.55 101.6 10.3L101.6 10.3 102.43 7.2Q102.89 7.35 103.38 7.46 103.87 7.57 104.28 7.57L104.28 7.57Q106.46 7.57 107.85 5.98 109.24 4.39 110.05 2L110.05 2 110.68 0.1 100.57-24.98 104.65-24.98 109.9-10.86Q110.49-9.23 111.12-7.39 111.76-5.54 112.37-3.81L112.37-3.81 112.59-3.81Q113.12-5.54 113.66-7.37 114.2-9.2 114.68-10.86L114.68-10.86 119.32-24.98 123.21-24.98 113.71 2.2Q112.85 4.61 111.65 6.58 110.44 8.54 108.69 9.7 106.95 10.86 104.48 10.86ZM137.7 0.61L137.7 0.61Q134.68 0.61 132.05-0.93 129.43-2.47 127.83-5.38 126.23-8.3 126.23-12.45L126.23-12.45Q126.23-16.63 127.83-19.57 129.43-22.51 132.05-24.06 134.68-25.61 137.7-25.61L137.7-25.61Q140.78-25.61 143.42-24.06 146.05-22.51 147.65-19.57 149.25-16.63 149.25-12.45L149.25-12.45Q149.25-8.3 147.65-5.38 146.05-2.47 143.42-0.93 140.78 0.61 137.7 0.61ZM137.7-2.66L137.7-2.66Q141.05-2.66 143.12-5.36 145.2-8.06 145.2-12.45L145.2-12.45Q145.2-16.87 143.12-19.59 141.05-22.31 137.7-22.31L137.7-22.31Q135.53-22.31 133.85-21.07 132.16-19.82 131.22-17.61 130.28-15.41 130.28-12.45L130.28-12.45Q130.28-8.06 132.36-5.36 134.43-2.66 137.7-2.66ZM163.26 0.61L163.26 0.61Q159.33 0.61 157.49-1.86 155.65-4.32 155.65-9.11L155.65-9.11 155.65-24.98 159.55-24.98 159.55-9.62Q159.55-6.08 160.71-4.46 161.87-2.83 164.46-2.83L164.46-2.83Q166.41-2.83 167.96-3.85 169.51-4.86 171.37-7.15L171.37-7.15 171.37-24.98 175.28-24.98 175.28 0 172.03 0 171.69-3.96 171.52-3.96Q169.78-1.9 167.8-0.65 165.83 0.61 163.26 0.61ZM187.85 0L183.89 0 183.89-24.98 187.19-24.98 187.55-20.46 187.65-20.46Q188.97-22.8 190.8-24.21 192.63-25.61 194.76-25.61L194.76-25.61Q196.37-25.61 197.39-25.1L197.39-25.1 196.51-21.73Q195.98-21.9 195.5-21.97 195.02-22.05 194.24-22.05L194.24-22.05Q192.66-22.05 190.9-20.74 189.14-19.43 187.85-16.16L187.85-16.16 187.85 0ZM228.54 0.61L228.54 0.61Q226.81 0.61 224.93-0.23 223.05-1.07 221.39-2.56L221.39-2.56 221.22-2.56 220.87 0 217.68 0 217.68-36.74 221.63-36.74 221.63-26.64 221.48-22.05Q223.27-23.56 225.3-24.58 227.34-25.61 229.47-25.61L229.47-25.61Q234.35-25.61 236.89-22.14 239.43-18.68 239.43-12.87L239.43-12.87Q239.43-8.62 237.91-5.6 236.4-2.59 233.92-0.99 231.44 0.61 228.54 0.61ZM227.93-2.71L227.93-2.71Q231.13-2.71 233.24-5.43 235.35-8.15 235.35-12.82L235.35-12.82Q235.35-17.04 233.76-19.68 232.18-22.31 228.54-22.31L228.54-22.31Q226.9-22.31 225.21-21.4 223.51-20.48 221.63-18.75L221.63-18.75 221.63-5.4Q223.34-3.93 225-3.32 226.66-2.71 227.93-2.71ZM256.15 0.61L256.15 0.61Q252.85 0.61 250.16-0.95 247.46-2.51 245.86-5.44 244.26-8.37 244.26-12.45L244.26-12.45Q244.26-16.53 245.86-19.48 247.46-22.44 250.02-24.02 252.58-25.61 255.44-25.61L255.44-25.61Q260.15-25.61 262.74-22.46 265.33-19.31 265.33-13.89L265.33-13.89Q265.33-12.52 265.18-11.57L265.18-11.57 248.17-11.57Q248.36-7.5 250.66-5 252.95-2.51 256.61-2.51L256.61-2.51Q258.49-2.51 260.06-3.02 261.62-3.52 262.96-4.42L262.96-4.42 264.35-1.95Q262.72-0.83 260.74-0.11 258.76 0.61 256.15 0.61ZM248.12-14.43L248.12-14.43 261.84-14.43Q261.84-18.36 260.18-20.41 258.52-22.46 255.49-22.46L255.49-22.46Q252.78-22.46 250.64-20.36 248.51-18.26 248.12-14.43ZM278.05 0.61L278.05 0.61Q275.26 0.61 272.87-0.33 270.48-1.27 268.77-2.93L268.77-2.93 270.62-5.25Q272.21-3.93 274.01-3.2 275.8-2.47 278.19-2.47L278.19-2.47Q280.71-2.47 281.98-3.67 283.25-4.88 283.25-6.54L283.25-6.54Q283.25-7.86 282.42-8.73 281.59-9.59 280.28-10.21 278.97-10.82 277.53-11.33L277.53-11.33Q275.68-12.01 273.99-12.92 272.31-13.82 271.23-15.19 270.16-16.55 270.16-18.6L270.16-18.6Q270.16-21.53 272.38-23.57 274.6-25.61 278.66-25.61L278.66-25.61Q280.98-25.61 282.94-24.82 284.91-24.02 286.35-22.83L286.35-22.83 284.54-20.51Q283.22-21.46 281.82-21.98 280.41-22.51 278.71-22.51L278.71-22.51Q276.24-22.51 275.1-21.37 273.97-20.24 273.97-18.8L273.97-18.8Q273.97-17.02 275.48-16.11 277-15.21 279.27-14.36L279.27-14.36Q281.24-13.67 283.03-12.78 284.81-11.89 285.93-10.47 287.05-9.06 287.05-6.74L287.05-6.74Q287.05-3.71 284.74-1.55 282.42 0.61 278.05 0.61ZM300.75 0.61L300.75 0.61Q296.82 0.61 295.28-1.66 293.74-3.93 293.74-7.62L293.74-7.62 293.74-21.73 290.03-21.73 290.03-24.78 293.96-24.98 294.43-33.08 297.72-33.08 297.72-24.98 304.58-24.98 304.58-21.73 297.72-21.73 297.72-7.52Q297.72-5.2 298.58-3.91 299.43-2.61 301.63-2.61L301.63-2.61Q302.29-2.61 303.02-2.75 303.75-2.88 304.51-3.22L304.51-3.22 305.39-0.44Q304.39 0 303.19 0.31 301.99 0.61 300.75 0.61ZM334.95 0L330.31 0 323.3-24.98 327.33-24.98 331.19-10.3Q331.6-8.52 331.97-6.82 332.34-5.13 332.68-3.34L332.68-3.34 332.9-3.34Q333.31-5.13 333.75-6.85 334.19-8.57 334.65-10.3L334.65-10.3 338.56-24.98 342.54-24.98 346.5-10.3Q346.96-8.52 347.4-6.82 347.84-5.13 348.25-3.34L348.25-3.34 348.45-3.34Q348.89-5.13 349.27-6.82 349.65-8.52 350.06-10.3L350.06-10.3 353.82-24.98 357.58-24.98 350.82 0 345.98 0 342.27-13.75Q341.81-15.53 341.41-17.3 341-19.07 340.51-20.92L340.51-20.92 340.32-20.92Q339.93-19.07 339.53-17.27 339.12-15.48 338.56-13.7L338.56-13.7 334.95 0ZM368.86 0.61L368.86 0.61Q365.73 0.61 363.63-1.21 361.53-3.03 361.53-6.42L361.53-6.42Q361.53-10.52 365.26-12.72 368.98-14.92 377.01-15.82L377.01-15.82Q377.01-17.48 376.56-18.97 376.11-20.46 374.97-21.41 373.84-22.36 371.74-22.36L371.74-22.36Q369.52-22.36 367.57-21.51 365.63-20.65 364.17-19.73L364.17-19.73 362.63-22.36Q364.29-23.51 366.82-24.56 369.34-25.61 372.37-25.61L372.37-25.61Q376.94-25.61 378.95-22.8 380.97-20 380.97-15.41L380.97-15.41 380.97 0 377.67 0 377.35-3.03 377.21-3.03Q375.4-1.54 373.29-0.46 371.18 0.61 368.86 0.61ZM369.93-2.56L369.93-2.56Q371.81-2.56 373.46-3.44 375.11-4.32 377.01-5.96L377.01-5.96 377.01-13.18Q372.69-12.65 370.15-11.77 367.61-10.89 366.51-9.64 365.41-8.4 365.41-6.74L365.41-6.74Q365.41-4.52 366.73-3.54 368.05-2.56 369.93-2.56ZM389.19 10.86L389.19 10.86Q388.36 10.86 387.63 10.71 386.9 10.55 386.31 10.3L386.31 10.3 387.14 7.2Q387.6 7.35 388.09 7.46 388.58 7.57 389 7.57L389 7.57Q391.17 7.57 392.56 5.98 393.95 4.39 394.76 2L394.76 2 395.39 0.1 385.28-24.98 389.36-24.98 394.61-10.86Q395.2-9.23 395.83-7.39 396.47-5.54 397.08-3.81L397.08-3.81 397.3-3.81Q397.83-5.54 398.37-7.37 398.91-9.2 399.4-10.86L399.4-10.86 404.03-24.98 407.92-24.98 398.42 2.2Q397.56 4.61 396.36 6.58 395.15 8.54 393.4 9.7 391.66 10.86 389.19 10.86ZM436.62 0.61L436.62 0.61Q432.69 0.61 431.15-1.66 429.62-3.93 429.62-7.62L429.62-7.62 429.62-21.73 425.9-21.73 425.9-24.78 429.84-24.98 430.3-33.08 433.6-33.08 433.6-24.98 440.46-24.98 440.46-21.73 433.6-21.73 433.6-7.52Q433.6-5.2 434.45-3.91 435.3-2.61 437.5-2.61L437.5-2.61Q438.16-2.61 438.89-2.75 439.63-2.88 440.38-3.22L440.38-3.22 441.26-0.44Q440.26 0 439.06 0.31 437.87 0.61 436.62 0.61ZM455.74 0.61L455.74 0.61Q452.71 0.61 450.08-0.93 447.46-2.47 445.86-5.38 444.26-8.3 444.26-12.45L444.26-12.45Q444.26-16.63 445.86-19.57 447.46-22.51 450.08-24.06 452.71-25.61 455.74-25.61L455.74-25.61Q458.81-25.61 461.45-24.06 464.09-22.51 465.68-19.57 467.28-16.63 467.28-12.45L467.28-12.45Q467.28-8.3 465.68-5.38 464.09-2.47 461.45-0.93 458.81 0.61 455.74 0.61ZM455.74-2.66L455.74-2.66Q459.08-2.66 461.16-5.36 463.23-8.06 463.23-12.45L463.23-12.45Q463.23-16.87 461.16-19.59 459.08-22.31 455.74-22.31L455.74-22.31Q453.56-22.31 451.88-21.07 450.19-19.82 449.25-17.61 448.31-15.41 448.31-12.45L448.31-12.45Q448.31-8.06 450.39-5.36 452.46-2.66 455.74-2.66ZM494.38 0.61L494.38 0.61Q492.13 0.61 491.12-0.77 490.11-2.15 490.11-4.79L490.11-4.79 490.11-36.74 494.06-36.74 494.06-4.47Q494.06-3.47 494.43-3.06 494.79-2.66 495.31-2.66L495.31-2.66Q495.5-2.66 495.68-2.67 495.87-2.69 496.19-2.76L496.19-2.76 496.7 0.2Q496.28 0.37 495.7 0.49 495.11 0.61 494.38 0.61ZM507.02 0L503.07 0 503.07-24.98 507.02-24.98 507.02 0ZM505.12-30.25L505.12-30.25Q503.92-30.25 503.19-30.99 502.46-31.74 502.46-32.98L502.46-32.98Q502.46-34.13 503.19-34.86 503.92-35.6 505.12-35.6L505.12-35.6Q506.31-35.6 507.05-34.86 507.78-34.13 507.78-32.98L507.78-32.98Q507.78-31.74 507.05-30.99 506.31-30.25 505.12-30.25ZM525.62 0L521.03 0 511.98-24.98 516.05-24.98 520.94-10.6Q521.5-8.74 522.08-6.88 522.67-5.03 523.26-3.22L523.26-3.22 523.48-3.22Q524.04-5.03 524.65-6.88 525.26-8.74 525.79-10.6L525.79-10.6 530.68-24.98 534.53-24.98 525.62 0ZM549.47 0.61L549.47 0.61Q546.18 0.61 543.48-0.95 540.78-2.51 539.18-5.44 537.58-8.37 537.58-12.45L537.58-12.45Q537.58-16.53 539.18-19.48 540.78-22.44 543.35-24.02 545.91-25.61 548.77-25.61L548.77-25.61Q553.48-25.61 556.07-22.46 558.65-19.31 558.65-13.89L558.65-13.89Q558.65-12.52 558.51-11.57L558.51-11.57 541.49-11.57Q541.69-7.5 543.98-5 546.28-2.51 549.94-2.51L549.94-2.51Q551.82-2.51 553.38-3.02 554.94-3.52 556.29-4.42L556.29-4.42 557.68-1.95Q556.04-0.83 554.06-0.11 552.09 0.61 549.47 0.61ZM541.44-14.43L541.44-14.43 555.16-14.43Q555.16-18.36 553.5-20.41 551.84-22.46 548.81-22.46L548.81-22.46Q546.1-22.46 543.97-20.36 541.83-18.26 541.44-14.43Z" opacity="1" transform="matrix(1,0,0,1,0,0)" fill="#d5b263" class="slogan-text-1" data-fill-palette-color="secondary" id="text-1"></path></svg></g></svg></g></svg></g></svg></g><g></g></svg></g><defs></defs></svg><rect width="250.6668817097129" height="280" fill="none" stroke="none" visibility="hidden"></rect></g></svg></g></svg>